<?xml version="1.0" encoding="iso-8859-1"?>
<!-- Generator: Adobe Illustrator 26.0.1, SVG Export Plug-In . SVG Version: 6.00 Build 0)  -->
<svg version="1.1" id="Layer_1" xmlns="http://www.w3.org/2000/svg" xmlns:xlink="http://www.w3.org/1999/xlink" x="0px" y="0px"
	 viewBox="0 0 1000 1000" style="enable-background:new 0 0 1000 1000;" xml:space="preserve">
<g id="watermark_1_">
	<g>
		<g id="watermark" style="opacity:0.61;">
			<g>
				<g>
					<g>
						<g>
							<polygon style="fill:#FFFFFF;" points="421.112,924.528 409.007,952.493 402.615,952.493 390.55,924.528 397.541,924.528 
								406.051,944.503 414.68,924.528 							"/>
						</g>
						<g>
							<path style="fill:#FFFFFF;" d="M442.323,943.185h-16.26c0.599,2.677,2.876,4.315,6.153,4.315
								c2.277,0,3.915-0.679,5.393-2.077l3.316,3.595c-1.997,2.278-4.994,3.476-8.868,3.476c-7.431,0-12.265-4.674-12.265-11.067
								c0-6.432,4.914-11.066,11.466-11.066c6.312,0,11.186,4.235,11.186,11.146C442.443,941.987,442.363,942.666,442.323,943.185
								 M425.983,939.55h10.587c-0.44-2.717-2.478-4.475-5.274-4.475C428.46,935.075,426.422,936.793,425.983,939.55"/>
						</g>
						<g>
							<path style="fill:#FFFFFF;" d="M444.997,941.427c0-6.471,4.994-11.066,11.985-11.066c4.514,0,8.07,1.958,9.628,5.473
								l-4.834,2.597c-1.159-2.038-2.877-2.956-4.834-2.956c-3.156,0-5.633,2.198-5.633,5.952c0,3.756,2.477,5.953,5.633,5.953
								c1.958,0,3.675-0.879,4.834-2.956l4.834,2.637c-1.558,3.436-5.114,5.433-9.628,5.433
								C449.991,952.493,444.997,947.899,444.997,941.427"/>
						</g>
						<g>
							<path style="fill:#FFFFFF;" d="M484.386,951.135c-1.279,0.919-3.157,1.358-5.074,1.358c-5.073,0-8.03-2.597-8.03-7.711
								v-8.829h-3.316v-4.794h3.316v-5.233h6.232v5.233h5.353v4.794h-5.353v8.749c0,1.837,0.998,2.836,2.677,2.836
								c0.918,0,1.837-0.279,2.517-0.799L484.386,951.135z"/>
						</g>
					</g>
					<g>
						<path style="fill:#FFFFFF;" d="M527.157,930.68v5.753c-0.519-0.04-0.918-0.08-1.398-0.08c-3.435,0-5.713,1.877-5.713,5.993
							v10.147h-6.232V931h5.953v2.836C521.284,931.759,523.841,930.68,527.157,930.68"/>
					</g>
					<g>
						<path style="fill:#FFFFFF;" d="M528.954,949.257l2.197-4.874c2.357,1.718,5.873,2.916,9.229,2.916
							c3.836,0,5.393-1.278,5.393-2.996c0-5.233-16.26-1.638-16.26-12.025c0-4.754,3.835-8.709,11.785-8.709
							c3.516,0,7.112,0.839,9.708,2.477l-1.998,4.914c-2.597-1.478-5.273-2.197-7.75-2.197c-3.835,0-5.313,1.438-5.313,3.196
							c0,5.154,16.259,1.598,16.259,11.865c0,4.675-3.875,8.67-11.865,8.67C535.905,952.493,531.43,951.175,528.954,949.257"/>
					</g>
					<g>
						<path style="fill:#FFFFFF;" d="M577.131,943.185h-16.26c0.599,2.677,2.876,4.315,6.153,4.315c2.277,0,3.915-0.679,5.393-2.077
							l3.316,3.595c-1.998,2.278-4.994,3.476-8.869,3.476c-7.431,0-12.265-4.674-12.265-11.067c0-6.432,4.914-11.066,11.466-11.066
							c6.312,0,11.187,4.235,11.187,11.146C577.251,941.987,577.171,942.666,577.131,943.185 M560.791,939.55h10.587
							c-0.439-2.717-2.477-4.475-5.273-4.475C563.268,935.075,561.231,936.793,560.791,939.55"/>
					</g>
					<g>
						<path style="fill:#FFFFFF;" d="M602.337,943.185h-16.26c0.599,2.677,2.876,4.315,6.152,4.315c2.277,0,3.915-0.679,5.393-2.077
							l3.316,3.595c-1.998,2.278-4.994,3.476-8.869,3.476c-7.431,0-12.265-4.674-12.265-11.067c0-6.432,4.914-11.066,11.466-11.066
							c6.312,0,11.186,4.235,11.186,11.146C602.457,941.987,602.377,942.666,602.337,943.185 M585.997,939.55h10.587
							c-0.439-2.717-2.477-4.475-5.273-4.475C588.474,935.075,586.437,936.793,585.997,939.55"/>
					</g>
					<g>
						<polygon style="fill:#FFFFFF;" points="615.838,944.064 612.841,947.02 612.841,952.493 606.61,952.493 606.61,922.85 
							612.841,922.85 612.841,939.629 621.95,931 629.381,931 620.432,940.108 630.18,952.493 622.63,952.493 						"/>
					</g>
					<g>
						<path style="fill:#FFFFFF;" d="M514.371,955.416L514.371,955.416l-6.226-6.226c-0.947,1.107-2.075,2.054-3.339,2.796
							c-0.201,0.15-0.406,0.296-0.616,0.433l6.589,6.589c0.992,0.992,2.601,0.992,3.592,0
							C515.363,958.017,515.363,956.408,514.371,955.416"/>
					</g>
					<g>
						<path style="fill:#FFFFFF;" d="M499.965,929.04c0.48-0.377,1.077-0.612,1.735-0.612c0.091,0,0.181,0.005,0.27,0.013
							c-0.466-0.34-1.041-0.542-1.663-0.542c-0.859,0-1.619,0.392-2.137,0.998c-0.111,0-0.218,0.013-0.328,0.016
							c0.086-0.167,0.139-0.354,0.139-0.555c0-0.509-0.311-0.945-0.752-1.13c0.19,0.275,0.301,0.608,0.301,0.968
							c0,0.267-0.066,0.517-0.176,0.742c-6.119,0.437-10.95,5.527-10.95,11.757c0,6.516,5.283,11.799,11.799,11.799
							c6.517,0,11.8-5.283,11.8-11.799C510.004,934.777,505.644,929.892,499.965,929.04 M495.61,932.114
							c0.947,0,1.837,0.244,2.611,0.674c0.813-0.532,1.785-0.842,2.828-0.842c1.547,0,2.934,0.68,3.883,1.756
							c-0.948-0.826-2.186-1.328-3.541-1.328c-0.977,0-1.895,0.261-2.686,0.716c-0.172,0.1-0.34,0.208-0.499,0.326
							c-0.142-0.104-0.29-0.203-0.444-0.292c-0.803-0.476-1.741-0.749-2.743-0.749c-0.653,0-1.279,0.117-1.86,0.331
							C493.895,932.328,494.727,932.114,495.61,932.114 M503.858,941.785c0.25,0.664,0.394,1.38,0.394,2.131
							c0,3.34-2.707,6.047-6.047,6.047c-3.339,0-6.047-2.707-6.047-6.047c0-0.751,0.143-1.467,0.394-2.131
							c-1.35-0.831-2.253-2.317-2.253-4.019c0-2.607,2.114-4.72,4.72-4.72c1.23,0,2.346,0.474,3.186,1.244
							c0.84-0.77,1.956-1.244,3.186-1.244c2.607,0,4.72,2.113,4.72,4.72C506.111,939.467,505.208,940.954,503.858,941.785"/>
					</g>
					<g>
						<path style="fill:#FFFFFF;" d="M503.627,937.351c0,1.082-0.879,1.961-1.961,1.961c-1.082,0-1.961-0.879-1.961-1.961
							s0.879-1.961,1.961-1.961c0.22,0,0.428,0.037,0.625,0.102c-0.065,0.135-0.099,0.287-0.099,0.445
							c0,0.595,0.482,1.076,1.077,1.076c0.11,0,0.217-0.017,0.318-0.048C503.613,937.089,503.627,937.218,503.627,937.351"/>
					</g>
					<g>
						<path style="fill:#FFFFFF;" d="M496.201,937.351c0,0.818-0.665,1.482-1.483,1.482c-0.818,0-1.483-0.664-1.483-1.482
							s0.665-1.483,1.483-1.483c0.166,0,0.324,0.027,0.473,0.077c-0.049,0.102-0.075,0.217-0.075,0.337
							c0,0.449,0.364,0.814,0.814,0.814c0.083,0,0.164-0.013,0.241-0.036C496.191,937.153,496.201,937.251,496.201,937.351"/>
					</g>
					<g>
						<g>
							<g>
								<rect x="484.56" y="939.024" style="fill:#FFFFFF;" width="1.34" height="1.34"/>
							</g>
							<g>
								<rect x="510.51" y="939.024" style="fill:#FFFFFF;" width="1.34" height="1.34"/>
							</g>
							<g>
								<path style="fill:#FFFFFF;" d="M511.332,939.572h-0.304c0-7.07-5.752-12.823-12.823-12.823
									c-7.07,0-12.823,5.753-12.823,12.823h-0.305c0-3.506,1.365-6.803,3.845-9.282c2.479-2.48,5.776-3.845,9.282-3.845
									c3.507,0,6.803,1.365,9.283,3.845C509.966,932.769,511.332,936.065,511.332,939.572"/>
							</g>
						</g>
						<g>
							<rect x="497.534" y="925.927" style="fill:#FFFFFF;" width="1.34" height="1.34"/>
						</g>
						<g>
							<rect x="489.006" y="926.445" style="fill:#FFFFFF;" width="18.397" height="0.304"/>
						</g>
						<g>
							<path style="fill:#FFFFFF;" d="M489.494,926.658c0,0.235-0.191,0.427-0.427,0.427c-0.235,0-0.426-0.191-0.426-0.427
								s0.191-0.427,0.426-0.427C489.303,926.231,489.494,926.422,489.494,926.658"/>
						</g>
						<g>
							<path style="fill:#FFFFFF;" d="M507.829,926.658c0,0.235-0.191,0.427-0.427,0.427c-0.235,0-0.426-0.191-0.426-0.427
								s0.191-0.427,0.426-0.427C507.639,926.231,507.829,926.422,507.829,926.658"/>
						</g>
					</g>
				</g>
				<g>
					<path style="fill:#FFFFFF;" d="M640.109,951.171c0,3.395-5.146,3.395-5.146,0C634.963,947.779,640.109,947.779,640.109,951.171
						z"/>
				</g>
				<g>
					<g>
						<g>
							<path style="fill:#FFFFFF;" d="M307.849,936.236l3.859,13.253l4.038-13.253h4.823l-6.145,17.721h-5.073l-1.822-5.216
								l-1.572-5.896l-1.571,5.896l-1.822,5.216h-5.073l-6.18-17.721h4.858l4.038,13.253l3.822-13.253H307.849z"/>
						</g>
						<g>
							<path style="fill:#FFFFFF;" d="M340.449,936.236l3.859,13.253l4.038-13.253h4.823l-6.145,17.721h-5.073l-1.822-5.216
								l-1.571-5.896l-1.572,5.896l-1.822,5.216h-5.073l-6.18-17.721h4.858l4.038,13.253l3.822-13.253H340.449z"/>
						</g>
						<g>
							<path style="fill:#FFFFFF;" d="M373.048,936.236l3.859,13.253l4.038-13.253h4.823l-6.145,17.721h-5.073l-1.822-5.216
								l-1.572-5.896l-1.571,5.896l-1.822,5.216h-5.073l-6.18-17.721h4.858l4.038,13.253l3.822-13.253H373.048z"/>
						</g>
					</g>
					<g>
						<path style="fill:#FFFFFF;" d="M393.123,951.412c0,3.395-5.146,3.395-5.146,0C387.977,948.02,393.123,948.02,393.123,951.412z
							"/>
					</g>
					<g>
						<path style="fill:#FFFFFF;" d="M658.296,951.171c-2.036,2.001-4.177,2.787-6.787,2.787c-5.108,0-9.361-3.072-9.361-9.323
							c0-6.251,4.253-9.326,9.361-9.326c2.502,0,4.43,0.716,6.359,2.609l-2.752,2.894c-1.036-0.931-2.321-1.393-3.534-1.393
							c-2.929,0-5.073,2.144-5.073,5.216c0,3.357,2.286,5.143,5,5.143c1.393,0,2.787-0.393,3.857-1.463L658.296,951.171z"/>
					</g>
					<g>
						<path style="fill:#FFFFFF;" d="M678.097,944.777c0,5.073-3.465,9.181-9.181,9.181c-5.716,0-9.146-4.107-9.146-9.181
							c0-5.038,3.502-9.181,9.111-9.181S678.097,939.739,678.097,944.777z M664.128,944.777c0,2.679,1.609,5.181,4.788,5.181
							c3.179,0,4.788-2.502,4.788-5.181c0-2.644-1.859-5.216-4.788-5.216C665.772,939.561,664.128,942.133,664.128,944.777z"/>
					</g>
					<g>
						<path style="fill:#FFFFFF;" d="M692.828,953.958v-9.431c0-2.324-1.216-4.43-3.61-4.43c-2.356,0-3.75,2.106-3.75,4.43v9.431
							h-4.36v-17.649h4.038l0.323,2.144c0.928-1.786,2.964-2.429,4.643-2.429c2.109,0,4.218,0.858,5.216,3.287
							c1.574-2.502,3.61-3.217,5.896-3.217c5,0,7.467,3.075,7.467,8.36v9.504h-4.361v-9.504c0-2.321-0.963-4.288-3.322-4.288
							c-2.356,0-3.822,2.036-3.822,4.36v9.431H692.828z"/>
					</g>
				</g>
			</g>
		</g>
		<g style="opacity:0.61;">
			<g>
				<g>
					<path style="fill:#FFFFFF;" d="M708.973,859.493c-0.013-2.665-2.087-4.618-4.766-4.659c-2.011-0.031-1.81,0.261-1.815-1.887
						c-0.006-2.389-0.015-4.778,0.006-7.166c0.007-0.824-0.243-1.505-0.787-2.125c-5.098-5.81-10.184-11.63-15.281-17.441
						c-0.262-0.299-0.599-0.532-0.901-0.796c-13.528,0-27.055,0-40.583,0c-1.729,0.639-2.482,1.889-2.478,3.72
						c0.021,8.159,0.009,16.318,0.008,24.478c0,1.21-0.007,1.281-1.197,1.201c-3.258-0.221-5.477,2.147-5.436,5.426
						c0.096,7.568,0.028,15.137,0.031,22.706c0.001,3.44,1.887,5.32,5.333,5.331c1.267,0.004,1.268,0.004,1.268,1.306
						c0.001,4.831-0.002,9.662,0.002,14.493c0.002,2.595,1.262,3.855,3.85,3.855c17.446,0.001,34.891,0.001,52.337,0
						c2.543,0,3.822-1.268,3.824-3.799c0.005-4.912,0.001-9.823,0.003-14.735c0-1.115,0.005-1.112,1.131-1.121
						c0.589-0.005,1.177,0.017,1.761-0.127c2.169-0.535,3.68-2.273,3.689-4.503C709.007,875.597,709.011,867.545,708.973,859.493z
						 M647.034,828.716c11.619-0.001,23.237-0.001,34.856,0c1.193,0,1.206,0.015,1.207,1.222c0.001,4.884-0.002,9.767,0.002,14.651
						c0.001,1.765,0.543,2.305,2.307,2.306c4.159,0.003,8.318,0,12.477,0.003c0.997,0.001,1.044,0.046,1.046,1.052
						c0.006,1.932,0.005,3.864,0,5.796c-0.003,1.038-0.051,1.085-1.098,1.085c-8.479,0.002-16.958,0.001-25.438,0.001
						c-8.452,0-16.905,0-25.357,0c-1.198,0-1.202-0.003-1.202-1.221c-0.001-7.889-0.001-15.778,0-23.667
						C645.835,828.724,645.844,828.716,647.034,828.716z M697.728,903.645c-8.454,0.001-16.908,0.001-25.362,0.001
						c-8.427,0-16.854,0.001-25.281,0c-1.245,0-1.249-0.003-1.249-1.262c-0.001-4.348-0.003-8.696,0.001-13.043
						c0.001-1.01,0.051-1.059,1.041-1.059c16.989-0.002,33.977-0.002,50.966,0c1.041,0,1.086,0.044,1.087,1.094
						c0.003,4.348,0.003,8.696,0.001,13.043C698.931,903.634,698.92,903.645,697.728,903.645z"/>
				</g>
				<g>
					<g>
						<rect x="668.546" y="828.478" style="fill:#FFFFFF;" width="3.825" height="2.295"/>
					</g>
					<g>
						<rect x="664.722" y="830.773" style="fill:#FFFFFF;" width="3.825" height="2.295"/>
					</g>
					<g>
						<rect x="668.546" y="833.068" style="fill:#FFFFFF;" width="3.825" height="2.295"/>
					</g>
					<g>
						<rect x="664.722" y="835.363" style="fill:#FFFFFF;" width="3.825" height="2.295"/>
					</g>
					<g>
						<rect x="668.546" y="837.658" style="fill:#FFFFFF;" width="3.825" height="2.295"/>
					</g>
					<g>
						<rect x="664.722" y="839.953" style="fill:#FFFFFF;" width="3.825" height="2.295"/>
					</g>
					<g>
						<rect x="668.546" y="842.247" style="fill:#FFFFFF;" width="3.825" height="2.295"/>
					</g>
					<g>
						<rect x="664.722" y="844.542" style="fill:#FFFFFF;" width="3.825" height="2.295"/>
					</g>
					<g>
						<rect x="668.546" y="846.837" style="fill:#FFFFFF;" width="3.825" height="2.295"/>
					</g>
					<g>
						<rect x="664.722" y="849.132" style="fill:#FFFFFF;" width="3.825" height="2.295"/>
					</g>
					<g>
						<rect x="668.546" y="851.427" style="fill:#FFFFFF;" width="3.825" height="2.295"/>
					</g>
					<g>
						<rect x="664.722" y="853.722" style="fill:#FFFFFF;" width="3.825" height="2.295"/>
					</g>
				</g>
			</g>
			<g>
				<path style="fill:#FFFFFF;" d="M364.231,859.493c-0.013-2.665-2.087-4.618-4.766-4.659c-2.011-0.031-1.81,0.261-1.815-1.887
					c-0.006-2.389-0.015-4.778,0.006-7.166c0.007-0.824-0.243-1.505-0.787-2.125c-5.098-5.81-10.184-11.63-15.281-17.441
					c-0.262-0.299-0.599-0.532-0.901-0.796c-13.528,0-27.055,0-40.583,0c-1.729,0.639-2.482,1.889-2.478,3.72
					c0.021,8.159,0.009,16.318,0.008,24.478c0,1.21-0.007,1.281-1.197,1.201c-3.258-0.221-5.477,2.147-5.436,5.426
					c0.096,7.568,0.028,15.137,0.031,22.706c0.001,3.44,1.887,5.32,5.333,5.331c1.267,0.004,1.268,0.004,1.268,1.306
					c0.001,4.831-0.002,9.662,0.002,14.493c0.002,2.595,1.262,3.855,3.85,3.855c17.446,0.001,34.891,0.001,52.337,0
					c2.543,0,3.822-1.268,3.824-3.799c0.005-4.912,0.001-9.823,0.003-14.735c0-1.115,0.004-1.112,1.131-1.121
					c0.589-0.005,1.177,0.017,1.761-0.127c2.169-0.535,3.68-2.273,3.689-4.503C364.264,875.597,364.269,867.545,364.231,859.493z
					 M302.292,828.716c11.619-0.001,23.237-0.001,34.856,0c1.192,0,1.206,0.015,1.207,1.222c0.001,4.884-0.001,9.767,0.002,14.651
					c0.001,1.765,0.543,2.305,2.307,2.306c4.159,0.003,8.318,0,12.477,0.003c0.997,0.001,1.044,0.046,1.046,1.052
					c0.006,1.932,0.005,3.864,0,5.796c-0.003,1.038-0.051,1.085-1.098,1.085c-8.479,0.002-16.958,0.001-25.438,0.001
					c-8.452,0-16.905,0-25.357,0c-1.198,0-1.202-0.003-1.202-1.221c-0.001-7.889-0.001-15.778,0-23.667
					C301.093,828.724,301.102,828.716,302.292,828.716z M352.985,903.645c-8.454,0.001-16.908,0.001-25.362,0.001
					c-8.427,0-16.854,0.001-25.281,0c-1.245,0-1.249-0.003-1.249-1.262c-0.001-4.348-0.003-8.696,0.001-13.043
					c0.001-1.01,0.051-1.059,1.041-1.059c16.989-0.002,33.977-0.002,50.966,0c1.041,0,1.086,0.044,1.087,1.094
					c0.003,4.348,0.003,8.696,0.001,13.043C354.188,903.634,354.177,903.645,352.985,903.645z"/>
			</g>
			<g>
				<path style="fill:#FFFFFF;" d="M303.581,879.891v-17.193h6.051c0.816,0,1.581,0.132,2.293,0.396
					c0.712,0.264,1.333,0.636,1.861,1.117c0.527,0.48,0.944,1.053,1.248,1.717c0.304,0.665,0.456,1.397,0.456,2.198
					c0,0.816-0.152,1.557-0.456,2.221s-0.721,1.236-1.248,1.717c-0.529,0.48-1.149,0.852-1.861,1.117
					c-0.713,0.264-1.477,0.396-2.293,0.396h-2.809v6.315H303.581z M309.68,870.503c0.848,0,1.489-0.241,1.921-0.721
					c0.432-0.48,0.648-1.032,0.648-1.656c0-0.304-0.052-0.601-0.156-0.889c-0.105-0.288-0.264-0.54-0.48-0.756
					c-0.216-0.217-0.484-0.388-0.805-0.516c-0.32-0.129-0.696-0.193-1.128-0.193h-2.857v4.731H309.68z"/>
				<path style="fill:#FFFFFF;" d="M317.796,862.699h3.77l6.916,11.526h0.191l-0.191-3.314v-8.212h3.217v17.193h-3.409l-7.3-12.174
					h-0.191l0.191,3.314v8.86h-3.193V862.699z"/>
				<path style="fill:#FFFFFF;" d="M343.08,870.454h8.429c0.048,0.193,0.087,0.425,0.12,0.697c0.031,0.272,0.048,0.544,0.048,0.816
					c0,1.104-0.167,2.145-0.504,3.121c-0.336,0.977-0.865,1.849-1.585,2.618c-0.768,0.817-1.69,1.449-2.761,1.897
					c-1.073,0.448-2.298,0.672-3.674,0.672c-1.249,0-2.426-0.224-3.53-0.672c-1.104-0.447-2.065-1.072-2.881-1.873
					c-0.816-0.8-1.465-1.749-1.945-2.845c-0.48-1.097-0.72-2.293-0.72-3.59c0-1.296,0.24-2.493,0.72-3.589s1.129-2.045,1.945-2.845
					c0.816-0.8,1.777-1.425,2.881-1.873c1.104-0.448,2.281-0.672,3.53-0.672c1.392,0,2.637,0.24,3.734,0.72
					c1.097,0.48,2.036,1.144,2.821,1.993l-2.232,2.185c-0.562-0.592-1.185-1.044-1.874-1.357s-1.513-0.468-2.473-0.468
					c-0.786,0-1.53,0.14-2.234,0.421c-0.705,0.28-1.321,0.676-1.85,1.188c-0.527,0.512-0.949,1.133-1.259,1.861
					c-0.312,0.728-0.469,1.541-0.469,2.437c0,0.897,0.157,1.709,0.469,2.438c0.311,0.728,0.735,1.349,1.271,1.861
					c0.536,0.512,1.156,0.909,1.862,1.188c0.704,0.281,1.457,0.421,2.258,0.421c0.911,0,1.684-0.132,2.317-0.396
					c0.632-0.264,1.171-0.604,1.62-1.021c0.321-0.288,0.598-0.652,0.829-1.092s0.412-0.932,0.541-1.477h-5.404V870.454z"/>
			</g>
			<g>
				<path style="fill:#FFFFFF;" d="M443.437,859.493c-0.013-2.665-2.087-4.618-4.766-4.659c-2.011-0.031-1.81,0.261-1.815-1.887
					c-0.006-2.389-0.015-4.778,0.006-7.166c0.007-0.824-0.243-1.505-0.787-2.125c-5.098-5.81-10.184-11.63-15.281-17.441
					c-0.262-0.299-0.599-0.532-0.901-0.796c-13.528,0-27.055,0-40.583,0c-1.729,0.639-2.482,1.889-2.478,3.72
					c0.021,8.159,0.009,16.318,0.008,24.478c0,1.21-0.007,1.281-1.197,1.201c-3.258-0.221-5.477,2.147-5.436,5.426
					c0.096,7.568,0.028,15.137,0.031,22.706c0.001,3.44,1.887,5.32,5.333,5.331c1.267,0.004,1.268,0.004,1.268,1.306
					c0.001,4.831-0.002,9.662,0.002,14.493c0.002,2.595,1.262,3.855,3.85,3.855c17.446,0.001,34.891,0.001,52.337,0
					c2.543,0,3.822-1.268,3.824-3.799c0.005-4.912,0.001-9.823,0.003-14.735c0-1.115,0.004-1.112,1.131-1.121
					c0.589-0.005,1.177,0.017,1.761-0.127c2.169-0.535,3.68-2.273,3.689-4.503C443.47,875.597,443.475,867.545,443.437,859.493z
					 M381.498,828.716c11.619-0.001,23.237-0.001,34.856,0c1.192,0,1.206,0.015,1.207,1.222c0.001,4.884-0.001,9.767,0.002,14.651
					c0.001,1.765,0.543,2.305,2.307,2.306c4.159,0.003,8.318,0,12.477,0.003c0.997,0.001,1.044,0.046,1.046,1.052
					c0.006,1.932,0.005,3.864,0,5.796c-0.003,1.038-0.051,1.085-1.098,1.085c-8.479,0.002-16.958,0.001-25.438,0.001
					c-8.452,0-16.905,0-25.357,0c-1.198,0-1.202-0.003-1.202-1.221c-0.001-7.889-0.001-15.778,0-23.667
					C380.299,828.724,380.308,828.716,381.498,828.716z M432.192,903.645c-8.454,0.001-16.908,0.001-25.362,0.001
					c-8.427,0-16.854,0.001-25.281,0c-1.245,0-1.249-0.003-1.249-1.262c-0.001-4.348-0.002-8.696,0.001-13.043
					c0.001-1.01,0.051-1.059,1.041-1.059c16.989-0.002,33.977-0.002,50.966,0c1.041,0,1.086,0.044,1.087,1.094
					c0.003,4.348,0.003,8.696,0.001,13.043C433.394,903.634,433.384,903.645,432.192,903.645z"/>
			</g>
			<g>
				<path style="fill:#FFFFFF;" d="M402.272,862.699h3.698l6.46,17.193h-3.578l-1.416-4.106h-6.628l-1.417,4.106h-3.578
					L402.272,862.699z M406.379,872.808l-1.537-4.298l-0.625-2.089h-0.192l-0.625,2.089l-1.537,4.298H406.379z"/>
				<path style="fill:#FFFFFF;" d="M415.815,866.541c-0.273,0-0.533-0.052-0.781-0.156c-0.248-0.104-0.465-0.248-0.648-0.432
					c-0.184-0.184-0.328-0.396-0.432-0.636c-0.105-0.241-0.156-0.504-0.156-0.793s0.052-0.552,0.156-0.793
					c0.104-0.24,0.248-0.452,0.432-0.636c0.184-0.184,0.4-0.328,0.648-0.432c0.248-0.104,0.508-0.156,0.781-0.156
					c0.56,0,1.041,0.196,1.441,0.588c0.4,0.393,0.601,0.869,0.601,1.429c0,0.56-0.201,1.037-0.601,1.428
					C416.856,866.345,416.375,866.541,415.815,866.541z M414.255,879.891v-11.766h3.145v11.766H414.255z"/>
			</g>
			<g>
				<path style="fill:#FFFFFF;" d="M524.043,859.493c-0.013-2.665-2.087-4.618-4.766-4.659c-2.011-0.031-1.81,0.261-1.815-1.887
					c-0.006-2.389-0.015-4.778,0.006-7.166c0.007-0.824-0.243-1.505-0.787-2.125c-5.098-5.81-10.184-11.63-15.281-17.441
					c-0.262-0.299-0.599-0.532-0.901-0.796c-13.528,0-27.055,0-40.583,0c-1.729,0.639-2.482,1.889-2.478,3.72
					c0.021,8.159,0.009,16.318,0.008,24.478c0,1.21-0.007,1.281-1.197,1.201c-3.258-0.221-5.477,2.147-5.436,5.426
					c0.096,7.568,0.028,15.137,0.031,22.706c0.001,3.44,1.887,5.32,5.333,5.331c1.267,0.004,1.268,0.004,1.268,1.306
					c0.001,4.831-0.002,9.662,0.002,14.493c0.002,2.595,1.262,3.855,3.85,3.855c17.446,0.001,34.891,0.001,52.337,0
					c2.543,0,3.822-1.268,3.824-3.799c0.005-4.912,0.001-9.823,0.003-14.735c0-1.115,0.004-1.112,1.131-1.121
					c0.589-0.005,1.177,0.017,1.761-0.127c2.169-0.535,3.68-2.273,3.689-4.503C524.076,875.597,524.081,867.545,524.043,859.493z
					 M462.104,828.716c11.619-0.001,23.237-0.001,34.856,0c1.192,0,1.206,0.015,1.207,1.222c0.001,4.884-0.001,9.767,0.002,14.651
					c0.001,1.765,0.543,2.305,2.307,2.306c4.159,0.003,8.318,0,12.477,0.003c0.997,0.001,1.044,0.046,1.046,1.052
					c0.006,1.932,0.005,3.864,0,5.796c-0.003,1.038-0.051,1.085-1.098,1.085c-8.479,0.002-16.958,0.001-25.438,0.001
					c-8.452,0-16.905,0-25.357,0c-1.198,0-1.202-0.003-1.202-1.221c-0.001-7.889-0.001-15.778,0-23.667
					C460.905,828.724,460.914,828.716,462.104,828.716z M512.798,903.645c-8.454,0.001-16.908,0.001-25.362,0.001
					c-8.427,0-16.854,0.001-25.281,0c-1.245,0-1.249-0.003-1.249-1.262c-0.001-4.348-0.002-8.696,0.001-13.043
					c0.001-1.01,0.051-1.059,1.041-1.059c16.989-0.002,33.977-0.002,50.966,0c1.041,0,1.086,0.044,1.087,1.094
					c0.003,4.348,0.003,8.696,0.001,13.043C514,903.634,513.989,903.645,512.798,903.645z"/>
			</g>
			<g>
				<path style="fill:#FFFFFF;" d="M470.308,880.275c-0.737,0-1.441-0.104-2.113-0.312c-0.672-0.208-1.289-0.52-1.849-0.936
					c-0.56-0.416-1.048-0.925-1.464-1.525c-0.417-0.601-0.745-1.301-0.985-2.101l3.049-1.2c0.224,0.864,0.616,1.581,1.177,2.149
					s1.297,0.852,2.209,0.852c0.336,0,0.66-0.044,0.973-0.132c0.312-0.087,0.592-0.216,0.84-0.384
					c0.248-0.168,0.444-0.38,0.589-0.636c0.144-0.256,0.216-0.552,0.216-0.888c0-0.32-0.056-0.608-0.168-0.865
					c-0.112-0.255-0.3-0.495-0.564-0.72c-0.264-0.224-0.609-0.44-1.033-0.648c-0.424-0.208-0.948-0.424-1.572-0.648l-1.056-0.384
					c-0.465-0.16-0.933-0.376-1.405-0.648c-0.472-0.272-0.9-0.6-1.284-0.985c-0.385-0.384-0.701-0.836-0.949-1.357
					c-0.249-0.52-0.372-1.108-0.372-1.765c0-0.672,0.132-1.301,0.396-1.885c0.264-0.584,0.64-1.096,1.129-1.537
					c0.488-0.44,1.072-0.784,1.753-1.032c0.681-0.248,1.437-0.372,2.269-0.372c0.864,0,1.612,0.116,2.245,0.348
					c0.633,0.232,1.168,0.528,1.609,0.888c0.44,0.36,0.796,0.757,1.068,1.188c0.272,0.433,0.472,0.84,0.601,1.225l-2.857,1.2
					c-0.161-0.48-0.453-0.913-0.876-1.297c-0.425-0.384-1.005-0.576-1.741-0.576c-0.704,0-1.289,0.164-1.753,0.492
					c-0.465,0.329-0.697,0.757-0.697,1.285c0,0.512,0.224,0.949,0.672,1.309c0.448,0.36,1.161,0.708,2.137,1.044l1.081,0.36
					c0.688,0.241,1.316,0.517,1.885,0.828c0.568,0.312,1.056,0.684,1.465,1.117c0.408,0.433,0.72,0.925,0.936,1.477
					c0.217,0.552,0.324,1.189,0.324,1.909c0,0.897-0.18,1.669-0.54,2.317c-0.36,0.648-0.82,1.181-1.38,1.597
					c-0.561,0.416-1.193,0.728-1.897,0.936C471.668,880.172,470.98,880.275,470.308,880.275z"/>
				<path style="fill:#FFFFFF;" d="M477.175,862.699h3.506l3.554,10.349l0.625,2.209h0.192l0.672-2.209l3.698-10.349h3.506
					l-6.268,17.193h-3.409L477.175,862.699z"/>
				<path style="fill:#FFFFFF;" d="M502.388,870.454h8.428c0.048,0.193,0.088,0.425,0.12,0.697c0.033,0.272,0.049,0.544,0.049,0.816
					c0,1.104-0.169,2.145-0.505,3.121c-0.336,0.977-0.864,1.849-1.585,2.618c-0.768,0.817-1.688,1.449-2.761,1.897
					c-1.073,0.448-2.298,0.672-3.674,0.672c-1.249,0-2.425-0.224-3.529-0.672c-1.105-0.447-2.066-1.072-2.882-1.873
					c-0.816-0.8-1.465-1.749-1.945-2.845c-0.48-1.097-0.72-2.293-0.72-3.59c0-1.296,0.241-2.493,0.72-3.589
					c0.48-1.097,1.129-2.045,1.945-2.845c0.816-0.8,1.777-1.425,2.882-1.873c1.104-0.448,2.28-0.672,3.529-0.672
					c1.392,0,2.637,0.24,3.734,0.72c1.097,0.48,2.038,1.144,2.822,1.993l-2.234,2.185c-0.56-0.592-1.185-1.044-1.874-1.357
					c-0.687-0.312-1.512-0.468-2.473-0.468c-0.784,0-1.528,0.14-2.234,0.421c-0.704,0.28-1.321,0.676-1.848,1.188
					c-0.528,0.512-0.949,1.133-1.261,1.861c-0.312,0.728-0.468,1.541-0.468,2.437c0,0.897,0.156,1.709,0.468,2.438
					c0.312,0.728,0.737,1.349,1.273,1.861c0.536,0.512,1.156,0.909,1.86,1.188c0.705,0.281,1.457,0.421,2.258,0.421
					c0.913,0,1.685-0.132,2.317-0.396c0.632-0.264,1.173-0.604,1.621-1.021c0.32-0.288,0.596-0.652,0.828-1.092
					c0.233-0.44,0.412-0.932,0.541-1.477h-5.402V870.454z"/>
			</g>
			<g>
				<path style="fill:#FFFFFF;" d="M602.976,859.493c-0.013-2.665-2.087-4.618-4.766-4.659c-2.011-0.031-1.81,0.261-1.815-1.887
					c-0.006-2.389-0.015-4.778,0.006-7.166c0.007-0.824-0.243-1.505-0.787-2.125c-5.098-5.81-10.184-11.63-15.281-17.441
					c-0.262-0.299-0.599-0.532-0.901-0.796c-13.528,0-27.055,0-40.583,0c-1.729,0.639-2.482,1.889-2.478,3.72
					c0.021,8.159,0.009,16.318,0.008,24.478c0,1.21-0.007,1.281-1.197,1.201c-3.258-0.221-5.477,2.147-5.436,5.426
					c0.096,7.568,0.028,15.137,0.031,22.706c0.001,3.44,1.887,5.32,5.333,5.331c1.267,0.004,1.268,0.004,1.268,1.306
					c0.001,4.831-0.002,9.662,0.002,14.493c0.002,2.595,1.262,3.855,3.85,3.855c17.446,0.001,34.891,0.001,52.337,0
					c2.543,0,3.822-1.268,3.824-3.799c0.005-4.912,0.001-9.823,0.003-14.735c0-1.115,0.005-1.112,1.131-1.121
					c0.589-0.005,1.178,0.017,1.761-0.127c2.169-0.535,3.68-2.273,3.689-4.503C603.01,875.597,603.015,867.545,602.976,859.493z
					 M541.037,828.716c11.619-0.001,23.237-0.001,34.856,0c1.193,0,1.206,0.015,1.207,1.222c0.001,4.884-0.002,9.767,0.002,14.651
					c0.001,1.765,0.543,2.305,2.307,2.306c4.159,0.003,8.318,0,12.477,0.003c0.997,0.001,1.044,0.046,1.046,1.052
					c0.006,1.932,0.005,3.864,0,5.796c-0.003,1.038-0.051,1.085-1.098,1.085c-8.479,0.002-16.958,0.001-25.438,0.001
					c-8.452,0-16.905,0-25.357,0c-1.198,0-1.202-0.003-1.202-1.221c-0.001-7.889-0.001-15.778,0-23.667
					C539.838,828.724,539.847,828.716,541.037,828.716z M591.731,903.645c-8.454,0.001-16.908,0.001-25.362,0.001
					c-8.427,0-16.854,0.001-25.281,0c-1.245,0-1.249-0.003-1.249-1.262c-0.001-4.348-0.003-8.696,0.001-13.043
					c0.001-1.01,0.051-1.059,1.041-1.059c16.989-0.002,33.977-0.002,50.966,0c1.041,0,1.086,0.044,1.087,1.094
					c0.003,4.348,0.003,8.696,0.001,13.043C592.934,903.634,592.923,903.645,591.731,903.645z"/>
			</g>
			<g>
				<path style="fill:#FFFFFF;" d="M549.998,865.772v3.986h6.891v3.074h-6.891v3.986h7.659v3.073h-10.901v-17.193h10.901v3.073
					H549.998z"/>
				<path style="fill:#FFFFFF;" d="M560.635,879.891v-17.193h6.051c0.816,0,1.581,0.132,2.293,0.396
					c0.712,0.264,1.333,0.636,1.861,1.117c0.528,0.48,0.944,1.053,1.249,1.717c0.304,0.665,0.456,1.397,0.456,2.198
					c0,0.816-0.152,1.557-0.456,2.221c-0.305,0.664-0.721,1.236-1.249,1.717c-0.528,0.48-1.149,0.852-1.861,1.117
					c-0.713,0.264-1.477,0.396-2.293,0.396h-2.809v6.315H560.635z M566.735,870.503c0.848,0,1.489-0.241,1.921-0.721
					c0.432-0.48,0.648-1.032,0.648-1.656c0-0.304-0.052-0.601-0.156-0.889c-0.105-0.288-0.264-0.54-0.48-0.756
					c-0.216-0.217-0.484-0.388-0.805-0.516c-0.32-0.129-0.696-0.193-1.128-0.193h-2.857v4.731H566.735z"/>
				<path style="fill:#FFFFFF;" d="M580.109,880.275c-0.737,0-1.441-0.104-2.113-0.312c-0.672-0.208-1.289-0.52-1.849-0.936
					c-0.56-0.416-1.049-0.925-1.465-1.525c-0.416-0.601-0.744-1.301-0.985-2.101l3.049-1.2c0.224,0.864,0.616,1.581,1.177,2.149
					c0.56,0.568,1.296,0.852,2.209,0.852c0.336,0,0.66-0.044,0.973-0.132c0.312-0.087,0.592-0.216,0.84-0.384
					c0.248-0.168,0.444-0.38,0.588-0.636c0.144-0.256,0.217-0.552,0.217-0.888c0-0.32-0.057-0.608-0.168-0.865
					c-0.112-0.255-0.3-0.495-0.565-0.72c-0.264-0.224-0.608-0.44-1.032-0.648c-0.424-0.208-0.949-0.424-1.573-0.648l-1.056-0.384
					c-0.465-0.16-0.932-0.376-1.404-0.648c-0.473-0.272-0.901-0.6-1.285-0.985c-0.384-0.384-0.701-0.836-0.949-1.357
					c-0.248-0.52-0.372-1.108-0.372-1.765c0-0.672,0.132-1.301,0.396-1.885c0.264-0.584,0.64-1.096,1.129-1.537
					c0.489-0.44,1.073-0.784,1.753-1.032c0.68-0.248,1.437-0.372,2.269-0.372c0.865,0,1.613,0.116,2.246,0.348
					c0.632,0.232,1.168,0.528,1.609,0.888c0.44,0.36,0.796,0.757,1.068,1.188c0.272,0.433,0.472,0.84,0.601,1.225l-2.857,1.2
					c-0.161-0.48-0.453-0.913-0.877-1.297s-1.005-0.576-1.741-0.576c-0.705,0-1.289,0.164-1.753,0.492
					c-0.465,0.329-0.696,0.757-0.696,1.285c0,0.512,0.224,0.949,0.672,1.309c0.448,0.36,1.16,0.708,2.137,1.044l1.08,0.36
					c0.689,0.241,1.317,0.517,1.885,0.828c0.568,0.312,1.056,0.684,1.465,1.117c0.408,0.433,0.72,0.925,0.936,1.477
					c0.216,0.552,0.324,1.189,0.324,1.909c0,0.897-0.18,1.669-0.54,2.317c-0.36,0.648-0.821,1.181-1.38,1.597
					c-0.561,0.416-1.193,0.728-1.897,0.936C581.47,880.172,580.782,880.275,580.109,880.275z"/>
			</g>
			<g>
				<path style="fill:#FFFFFF;" d="M655.431,876.625l8.716-10.854h-8.332v-3.073h12.103v3.266l-8.621,10.854h8.716v3.073h-12.582
					V876.625z"/>
				<path style="fill:#FFFFFF;" d="M670.702,862.699h3.242v17.193h-3.242V862.699z"/>
				<path style="fill:#FFFFFF;" d="M677.402,879.891v-17.193h6.051c0.817,0,1.581,0.132,2.293,0.396
					c0.712,0.264,1.333,0.636,1.861,1.117s0.944,1.053,1.249,1.717c0.304,0.665,0.456,1.397,0.456,2.198
					c0,0.816-0.152,1.557-0.456,2.221c-0.305,0.664-0.721,1.236-1.249,1.717s-1.149,0.852-1.861,1.117
					c-0.713,0.264-1.477,0.396-2.293,0.396h-2.809v6.315H677.402z M683.501,870.503c0.848,0,1.489-0.241,1.921-0.721
					c0.433-0.48,0.648-1.032,0.648-1.656c0-0.304-0.052-0.601-0.156-0.889c-0.105-0.288-0.264-0.54-0.48-0.756
					c-0.216-0.217-0.484-0.388-0.805-0.516c-0.32-0.129-0.696-0.193-1.128-0.193h-2.857v4.731H683.501z"/>
			</g>
		</g>
		<g style="opacity:0.61;">
			<path style="fill:#FFFFFF;" d="M609.144,863.785h19.739v4.881h-19.739V863.785z M609.144,872.201h19.739v4.884h-19.739V872.201z"
				/>
		</g>
	</g>
	<g style="opacity:0.61;">
		<path style="fill:#FFFFFF;" d="M297,963.076h3.498c2.75,0,4.603,1.768,4.603,4.297s-1.854,4.296-4.603,4.296H297V963.076z
			 M300.449,970.883c2.283,0,3.756-1.448,3.756-3.51s-1.473-3.511-3.756-3.511h-2.541v7.021H300.449z"/>
		<path style="fill:#FFFFFF;" d="M315.251,967.373c0-2.504,1.915-4.37,4.517-4.37c2.577,0,4.505,1.853,4.505,4.37
			c0,2.516-1.927,4.369-4.505,4.369C317.166,971.742,315.251,969.877,315.251,967.373z M323.365,967.373
			c0-2.05-1.534-3.56-3.596-3.56c-2.075,0-3.621,1.51-3.621,3.56c0,2.049,1.546,3.559,3.621,3.559
			C321.831,970.932,323.365,969.422,323.365,967.373z"/>
		<path style="fill:#FFFFFF;" d="M346.724,963.076l-2.897,8.593h-0.957l-2.516-7.328l-2.529,7.328h-0.945l-2.897-8.593h0.933
			l2.479,7.389l2.566-7.389h0.847l2.529,7.426l2.516-7.426H346.724z"/>
		<path style="fill:#FFFFFF;" d="M364.435,963.076v8.593h-0.749l-5.524-6.972v6.972h-0.908v-8.593h0.749l5.536,6.973v-6.973H364.435
			z"/>
		<path style="fill:#FFFFFF;" d="M376.108,963.076h0.908v7.807h4.812v0.786h-5.72V963.076z"/>
		<path style="fill:#FFFFFF;" d="M391.279,967.373c0-2.504,1.915-4.37,4.517-4.37c2.577,0,4.505,1.853,4.505,4.37
			c0,2.516-1.927,4.369-4.505,4.369C393.194,971.742,391.279,969.877,391.279,967.373z M399.392,967.373
			c0-2.05-1.534-3.56-3.596-3.56c-2.075,0-3.621,1.51-3.621,3.56c0,2.049,1.546,3.559,3.621,3.559
			C397.858,970.932,399.392,969.422,399.392,967.373z"/>
		<path style="fill:#FFFFFF;" d="M416.478,969.374h-4.787l-1.031,2.295h-0.945l3.928-8.593h0.896l3.928,8.593h-0.957
			L416.478,969.374z M416.147,968.637l-2.062-4.615l-2.062,4.615H416.147z"/>
		<path style="fill:#FFFFFF;" d="M428.765,963.076h3.498c2.75,0,4.603,1.768,4.603,4.297s-1.854,4.296-4.603,4.296h-3.498V963.076z
			 M432.214,970.883c2.283,0,3.756-1.448,3.756-3.51s-1.473-3.511-3.756-3.511h-2.541v7.021H432.214z"/>
		<path style="fill:#FFFFFF;" d="M465.256,969.374h-4.787l-1.031,2.295h-0.945l3.928-8.593h0.896l3.928,8.593h-0.957
			L465.256,969.374z M464.925,968.637l-2.062-4.615l-2.062,4.615H464.925z"/>
		<path style="fill:#FFFFFF;" d="M477.543,963.076h0.908v7.807h4.812v0.786h-5.72V963.076z"/>
		<path style="fill:#FFFFFF;" d="M493.647,963.076h0.908v7.807h4.812v0.786h-5.72V963.076z"/>
		<path style="fill:#FFFFFF;" d="M522.749,963.862v3.376h4.443v0.786h-4.443v3.646h-0.909v-8.593h5.891v0.786H522.749z"/>
		<path style="fill:#FFFFFF;" d="M538.485,963.076h0.909v8.593h-0.909V963.076z"/>
		<path style="fill:#FFFFFF;" d="M551.067,963.076h0.909v7.807h4.811v0.786h-5.72V963.076z"/>
		<path style="fill:#FFFFFF;" d="M573.246,970.883v0.786h-6.076v-8.593h5.891v0.786h-4.983v3.056h4.443v0.774h-4.443v3.191H573.246z
			"/>
		<path style="fill:#FFFFFF;" d="M597.255,963.862v3.376h4.443v0.786h-4.443v3.646h-0.909v-8.593h5.891v0.786H597.255z"/>
		<path style="fill:#FFFFFF;" d="M612.119,967.373c0-2.504,1.915-4.37,4.517-4.37c2.577,0,4.505,1.853,4.505,4.37
			c0,2.516-1.927,4.369-4.505,4.369C614.034,971.742,612.119,969.877,612.119,967.373z M620.232,967.373
			c0-2.05-1.534-3.56-3.596-3.56c-2.075,0-3.622,1.51-3.622,3.56c0,2.049,1.547,3.559,3.622,3.559
			C618.698,970.932,620.232,969.422,620.232,967.373z"/>
		<path style="fill:#FFFFFF;" d="M637.919,971.669l-1.963-2.762c-0.222,0.024-0.442,0.037-0.688,0.037h-2.307v2.725h-0.909v-8.593
			h3.216c2.185,0,3.511,1.105,3.511,2.946c0,1.351-0.712,2.295-1.964,2.7l2.099,2.946H637.919z M637.871,966.022
			c0-1.375-0.909-2.161-2.627-2.161h-2.283v4.309h2.283C636.962,968.17,637.871,967.373,637.871,966.022z"/>
		<path style="fill:#FFFFFF;" d="M658.724,963.076v8.593h-0.871v-6.874l-3.376,5.782h-0.429l-3.376-5.745v6.837h-0.872v-8.593h0.749
			l3.732,6.371l3.695-6.371H658.724z"/>
		<path style="fill:#FFFFFF;" d="M675.787,969.374h-4.788l-1.031,2.295h-0.946l3.928-8.593h0.896l3.928,8.593h-0.957
			L675.787,969.374z M675.455,968.637l-2.062-4.615l-2.062,4.615H675.455z"/>
		<path style="fill:#FFFFFF;" d="M689.312,963.862h-3.02v-0.786h6.948v0.786h-3.02v7.807h-0.908V963.862z"/>
		<path style="fill:#FFFFFF;" d="M702.605,970.626l0.356-0.7c0.614,0.601,1.706,1.043,2.835,1.043c1.608,0,2.308-0.675,2.308-1.522
			c0-2.357-5.29-0.908-5.29-4.087c0-1.265,0.982-2.357,3.167-2.357c0.97,0,1.976,0.282,2.664,0.761l-0.307,0.724
			c-0.737-0.479-1.596-0.712-2.357-0.712c-1.571,0-2.271,0.7-2.271,1.559c0,2.357,5.29,0.933,5.29,4.063
			c0,1.265-1.006,2.344-3.204,2.344C704.508,971.742,703.243,971.288,702.605,970.626z"/>
	</g>
</g>
<g>
</g>
<g>
	<path style="fill-rule:evenodd;clip-rule:evenodd;" d="M150.128,203.761v1.504c-13.97,0-25.949,6.237-35.479,15.147l-5.702,6.83
		c-6.225,8.483-9.477,18.417-9.946,28.438v5.064c0.603,13.046,5.877,25.846,15.409,35.378c16.475,16.475,44.003,20.624,64.587,8.188
		c2.133-1.289,4.372-3.681,6.72-4.308c3.402,2.278,8.129,7.616,11.146,10.407c1.146,1.06,1.623,1.183,2.769,2.243l5.512,5.516
		c8.644,7.613,16.695,16.194,25.537,23.585l33.366,31.296c1.902,1.831,3.545,3.845,5.526,5.501c4.666,3.901,5.366,3.499,5.366,9.171
		l-86.716-0.501c-22.206,0-30.619,23.5-18.346,39.9c2.613,3.49,8.97,7.718,14.837,7.718h91.228c0,11.566,5.917,34.047,9.711,45.427
		l11.676,27.923c6.868,13.736,15.128,26.61,24.296,38.862c9.021,12.056,19.258,22.653,29.881,33.276
		c5.156,5.156,11.174,10.899,17.168,14.912l-5.288,5.238c-0.112,0.094-0.433,0.363-0.544,0.458c-0.58,0.496-0.524,0.437-1.061,0.944
		l-10.265,9.785c-1.427,1.413-2.351,1.826-3.779,3.238l-81.196,75.695c-1.506,1.327-2.254,1.738-3.758,3.26
		c-1.19,1.204-2.253,2.42-3.529,3.488l-3.862,3.155c-1.268-0.849-1.734-1.601-3-2.513c-1.121-0.807-2.353-1.598-3.609-2.406
		c-26.035-16.758-61.403-7.3-76.438,22.624c-1.418,2.821-2.511,6.252-3.377,9.655c-1.048,4.115-1.159,7.71-1.679,11.895
		c-0.742,5.973,2.011,16.252,4.242,21.549c7.63,18.119,26.203,32.429,46.769,32.429c0,31.872,23.481,55.137,55.137,55.137
		c20.048,0,37.993-13.935,44.786-27.394c2.247-4.45,3.747-7.517,5.12-12.926c3.225-12.712,1.233-25.747-4.458-37.208
		c-0.574-1.154-0.873-1.878-1.545-2.967c-0.812-1.316-1.401-1.726-1.798-3.215c2.147-3.206,6.951-6.673,9.899-9.649l10.151-9.398
		c3.351-2.557,18.185-17.915,20.551-18.547c0,9.934,6.475,28.677,10.311,37.809c8.35,19.874,21.085,37.526,38.31,50.411
		c4.532,3.39,9.481,6.906,14.53,9.53c3.368,1.751,7.073,3.745,10.816,5.224c40.383,15.954,83.329,16.492,125.136,4.9
		c4.041-1.12,8.39-2.578,11.916-4.124c11.095-4.864,21.22-10.312,30.803-17.819c23.61-18.494,39.294-47.788,44.107-77.195
		c0.426-2.602,0.758-4.961,1.288-7.233l33.96,31.704c1.55,1.555,2.898,3.787,5.138,4.386c-6.037,11.41-10.025,16.796-10.025,31.579
		c0,12.67,4.035,23.582,11.454,32.656c8.891,10.875,23.007,19.976,37.668,19.976c10.711,0,18.035-0.464,27.402-5.179
		c6.344-3.193,9.829-5.748,14.577-10.485c9.853-9.828,15.163-21.942,15.163-38.972c32.22,0,63.632-34.607,46.696-75.267
		c-0.969-2.328-3.284-6.31-4.724-8.307c-2.223-3.083-3.625-4.641-6.257-7.277c-17.13-17.153-43.889-20.228-65.318-7.423
		c-1.445,0.864-2.232,1.338-3.627,2.387c-1.283,0.966-2.243,1.907-3.36,2.655c-1.652-2.467-7.207-7.077-9.89-9.659
		c-1.427-1.374-2.314-1.77-3.777-3.241l-69.656-65.681c-1.369-1.355-2.168-1.677-3.529-2.987c-1.302-1.253-2.226-2.237-3.497-3.52
		c-1.429-1.442-1.907-1.819-3.459-3.057c-1.289-1.028-2.346-2.241-3.559-3.458c-2.045-2.053-12.65-11.277-13.91-13.158
		c6.332-4.24,12.458-9.387,18.166-14.414c5.668-4.992,11.57-10.395,16.541-16.04l3.767-4.253c1.602-1.575,2.229-2.661,3.756-4.264
		c0.978-1.027,1.004-1.203,1.809-2.201c6.862-8.498,13.667-16.888,19.279-26.334c2.072-3.488,4.061-6.512,6.014-10.026
		c6.077-10.932,11.017-21.612,15.591-33.531c4.826-12.576,12.819-39.828,12.819-52.845h93.232c11.458,0,20.05-10.47,20.05-21.554
		c0-7.601-1.242-13.134-6.125-17.934c-3.513-3.453-8.64-5.624-15.429-5.624H728.57c0-6.434-0.562-6.106,4.63-10.909
		c1.146-1.06,1.623-1.183,2.769-2.243l18.784-17.807c1.146-1.06,1.623-1.183,2.769-2.243l13.774-12.793
		c1.835-1.615,3.162-3.417,5.039-4.986l16.526-15.053c3.542-3.56,6.949-6.52,10.509-10.042l5.523-5.003
		c1.446-1.453,3.889-4.103,5.89-4.637c3.576,2.395,6.998,5.283,11.096,6.949c5.012,2.036,8.069,3.18,14.313,4.233
		c20.862,3.52,39.192-5.854,50.997-21.493c5.567-7.376,9.074-17.491,9.809-27.709v-7.943c-0.243-3.257-0.794-6.454-1.677-9.502
		c-0.957-3.304-1.999-6.521-3.323-9.208c-2.375-4.823-5.563-9.006-9.146-12.909c-2.63-2.866-5.242-5.313-8.503-7.537
		c-2.423-1.653-5.244-3.4-7.932-4.599c-5.864-2.616-12.716-4.366-20.546-5.018c1.757-4.254-1.764-17.092-3.575-21.488
		c-4.872-11.827-13.268-21.651-24.751-27.379c-31.761-15.841-68.822,1.425-76.729,36.544c-2.732,12.133-0.317,26.264,5.823,36.868
		c1.11,1.917,2.393,3.451,3.493,5.53l-25.442,24.182c-8.902,7.838-17.943,15.871-26.311,24.315c-1.42,1.432-6.332,6.223-7.896,6.641
		c-0.672-2.517-6-8.836-7.588-10.958c-6.278-8.391-18.162-22.445-26.35-29.29c-3.302-2.76-6.19-6.193-9.67-8.876
		c-1.61-1.24-3.283-2.699-4.901-4.122c-17.194-15.117-43.648-29.035-64.986-37.269c-6.911-2.667-13.948-4.706-20.944-6.625
		c-13.191-3.618-25.972-5.567-39.959-6.657c-16.751-1.306-36.839-0.956-52.825,1.386c-11.293,1.655-21.211,3.506-31.32,6.273
		c-31.65,8.664-58.603,22.88-82.964,43.351l-10.018,9.03c-1.203,1.005-1.564,1.101-2.744,2.268
		c-6.373,6.305-12.137,12.918-17.774,19.819c-4.832,5.914-9.875,12.218-13.762,18.819c-0.751,1.275-1.107,2.077-2.163,2.85
		c-3.99-2.672-30.802-29.263-37.947-35.235c-5.103-4.266-9.582-9.936-14.974-14.099c-2.968-2.291-4.741-5.306-7.73-7.307
		c8.099-12.094,10.526-20.001,10.526-35.589c0-6.744-2.767-14.996-5.005-19.556c-7.898-16.097-25.583-30.067-44.62-30.067
		c-11.092,0-17.03,0.929-26.429,5.15C162.141,163.952,150.128,183.727,150.128,203.761L150.128,203.761z"/>
	<path style="fill-rule:evenodd;clip-rule:evenodd;fill:#FEFEFE;" d="M714.778,435.348l-425.673-0.001
		c3.384,35.046,25.937,84.504,48.499,111.264l21.269,22.327c14.841,14.013,38.9,27.622,57.942,34.806
		c50.326,18.988,118.182,18.627,168.597-0.792c17.203-6.626,33.361-15.624,47.297-26.379l19.767-17.329
		c1.167-1.175,1.783-1.927,2.878-3.141c1.108-1.229,2.214-1.976,3.306-3.195c6.758-7.539,16.041-19.593,21.253-27.874
		c3.157-5.016,6.284-10.227,9.28-15.784c5.778-10.716,10.75-22.133,15.257-34.395C708.188,464.686,713.626,446.965,714.778,435.348
		L714.778,435.348z"/>
	<path style="fill-rule:evenodd;clip-rule:evenodd;fill:#FFCF1F;" d="M309.014,320.234l384.169,0.029
		c-1.668-6.119-10.555-20.096-13.871-25.144l-18.946-24.665c-0.941-1.173-1.453-1.403-2.497-2.499
		c-1.753-1.84-2.906-3.433-4.755-5.279c-6.493-6.486-13.293-12.824-20.618-18.48c-35.439-27.361-78.223-44.224-131.494-44.198
		c-50.568,0.025-99.087,16.658-131.48,43.71l-7.88,6.647c-1.052,0.896-1.788,1.235-2.798,2.236
		c-16.392,16.25-21.868,21.268-35.939,42.252C319.598,299.774,310.667,314.012,309.014,320.234L309.014,320.234z"/>
	<path style="fill-rule:evenodd;clip-rule:evenodd;fill:#FF0011;" d="M288.471,385.861l425.558-0.501
		c1.545-9.877-4.503-31.823-8.377-41.887c-1.544-4.012-3.763-8.387-4.966-12.022l-397.677-0.028
		c-2.544,0.628-9.176,22.342-9.79,24.444C290.372,365.617,288.763,375.126,288.471,385.861L288.471,385.861z"/>
	<path style="fill-rule:evenodd;clip-rule:evenodd;fill:#FEFEFE;" d="M632.896,703.03l-13.864,7.735
		c-78,39.901-162.741,40.345-238.696-4.388c-2.448-1.442-4.528-2.696-6.808-4.214c-2.164-1.441-4.74-3.378-7.144-4.369
		c1.618,23.139,0.848,33.927,8.932,57.214c11.182,32.216,32.353,54.388,65.072,67.25c32.175,12.649,82.465,12.848,115.124,1.947
		c8.29-2.767,15.835-6.196,22.867-10.239c4.612-2.651,15.235-10.106,18.815-14.267c1.373-1.596,2.437-2.572,4.053-3.963
		c2.554-2.199,9.01-10.953,11.01-14.057c4.294-6.664,7.924-13.596,11.16-21.926C629.577,743.895,633.512,721.935,632.896,703.03
		L632.896,703.03z"/>
	<path style="fill-rule:evenodd;clip-rule:evenodd;fill:#FEFEFE;" d="M644.317,713.214c6.51,5.065,11.795,11.134,17.042,15.893
		l17.107,15.98c1.269,1.102,2.288,1.889,3.514,3.012c1.355,1.242,2.044,2.365,3.428,3.575c2.53,2.211,12.578,11.029,13.804,12.986
		c-0.575,0.945-0.09,0.212-0.72,0.95c-4.791,5.611-7.607,8.104-10.778,15.855c-8.831,21.585,3.204,46.884,25.339,53.851
		c22.476,7.075,46.473-6.288,52.138-28.528c2.629-10.322,0.609-15.526-0.649-25.384c10.205,0.821,15.874,2.242,25.764-1.142
		c22.146-7.576,33.755-32.475,24.338-54.555c-12.405-29.087-48.791-30.59-64.53-14.692c-1.992,2.012-5.682,5.335-6.917,7.608
		c-2.755-1.18-5.275-4.361-7.547-6.648c-1.189-1.196-2.429-2.174-3.734-3.295c-1.661-1.429-2.131-2.079-3.753-3.757l-25.896-24.23
		c-1.471-1.33-2.543-2.206-4.039-3.491l-37.123-35.046c-6.04-5.203-12.636-12.204-18.444-17.152l-11.27-10.779
		c-1.989-2.211-5.329-4.752-7.567-6.781l8.358,23.016C640.628,657.374,644.255,684.521,644.317,713.214L644.317,713.214z"/>
	<path style="fill-rule:evenodd;clip-rule:evenodd;fill:#FEFEFE;" d="M255.054,717.802c-4.963-4.723-6.981-8.287-14.026-12.465
		c-19.698-11.681-44.64-3.952-55.545,14.48c-16.896,28.557,5.015,61.692,34.82,61.692l12.654-1.059
		c-2.602,15.501-3.731,23.912,4.016,36.707c5.03,8.309,14.062,15.922,26.529,18.573c26.469,5.626,49.095-15.687,49.035-39.993
		c-0.016-6.648-1.692-13.007-4.315-18.249c-3.793-7.582-8.875-11.587-9.878-13.329c0.836-1.785,1.586-2.003,3.533-3.642
		c6.33-5.329,14.282-13.794,22.151-20.457c1.529-1.295,2.285-2.439,3.754-3.751l14.864-13.711c2.569-2.186,4.702-4.576,7.276-6.761
		c4.577-3.884,4.63-1.958,4.603-9.823c-0.086-25.093,3.061-51.969,10.135-75.696c1.089-3.651,2.277-7.147,3.496-10.535
		c1.232-3.42,3.122-7.054,4.139-10.395c-2.726,1.996-4.743,3.944-7.358,6.669l-32.906,30.268c-1.499,1.49-1.962,2.171-3.513,3.49
		c-2.579,2.192-4.7,4.551-7.281,6.756l-40.49,37.697c-1.392,1.215-2.474,2.039-3.805,3.232l-18.059,17.013
		C257.522,715.674,256.266,716.641,255.054,717.802L255.054,717.802z"/>
	<path style="fill-rule:evenodd;clip-rule:evenodd;fill:#FEFEFE;" d="M164.46,218.583c-10.265,0.117-14.014-2.53-25.069,1.037
		c-21.367,6.893-34.404,31.284-25.357,53.816c8.591,21.399,33.761,32.238,55.452,21.867c8.151-3.898,10.995-7.775,15.912-12.6
		l11.291,10.34c2.119,1.806,3.521,3.654,5.596,5.423l20.073,18.537c1.081,0.985,1.608,1.853,2.641,2.855l39.875,37.321
		c1.755,1.932,3.919,3.357,5.842,5.199c2.294,2.198,3.174,3.68,5.727,5.348c1.043-1.916,3.289-13.908,4.255-17.346
		c4.414-15.715,8.918-25.305,15.727-39.416c1.185-2.456,3.128-4.879,3.718-7.66c-4.031-2.879-5.779-5.212-8.86-8.109l-26.739-24.897
		c-3.099-2.671-5.714-5.521-8.809-8.237l-27.083-25.035c1.401-4.622,19.644-15.102,14.867-40.964
		c-2.756-14.922-13.848-26.67-26.639-31c-13.349-4.517-27.415-2.088-38.491,6.308c-0.684,0.518-1.345,0.956-1.976,1.541
		c-0.745,0.69-1.208,1.377-1.935,2.061c-4.505,4.24-8.37,10.203-10.517,18.083C160.647,205.213,164.035,210.485,164.46,218.583
		L164.46,218.583z"/>
	<path style="fill-rule:evenodd;clip-rule:evenodd;fill:#FEFEFE;" d="M771.607,238.496l-21.695,20.179
		c-1.55,1.436-3.045,2.46-4.607,3.933l-8.688,8.34c-1.402,1.538-2.727,2.401-4.287,3.745l-22.098,20.513
		c-2.746,2.832-7.541,6.62-8.497,8.304c6.016,12.082,8.081,13.529,14.449,28.925c2.263,5.472,4.06,10.591,5.819,16.235
		c0.856,2.749,3.969,16.394,4.563,17.381c3.67-3.18,7.298-6.58,11.018-9.926c1.022-0.919,1.437-1.569,2.434-2.562l30.476-28.179
		c6.601-5.557,15.58-14.933,21.879-20.229c0.968-0.814,1.827-1.453,2.677-2.34c4.447-4.642,10.115-9.155,13.785-12.784l5.641-5.332
		c3.458,4.015,10.188,9.957,15.255,12.389c32.001,15.357,65.052-12.371,58.312-44.778c-2.963-14.247-13.335-25.815-26.806-30.331
		c-9.876-3.31-15.26-1.928-25.473-1.162c1.115-9.865,3.434-14.623,0.781-25.286c-5.678-22.823-30.086-36.289-52.641-28.681
		c-26.166,8.826-36.599,40.818-19.126,63.859C766.92,233.532,770.206,235.735,771.607,238.496L771.607,238.496z"/>
	<path style="fill-rule:evenodd;clip-rule:evenodd;fill:#FFCF1F;" d="M187.262,398.069c-10.957,2.833-12.071,23.115-0.294,25.47
		c4.378,0.876,436.585,0.199,465.411,0.199c3.077,0,165.614,0.573,169.177-0.201c11.091-2.408,11.022-22.78-0.035-25.446
		c-3.553-0.857-525.965-0.208-592.197-0.208C222.353,397.884,191.475,396.979,187.262,398.069L187.262,398.069z"/>
	<path style="fill-rule:evenodd;clip-rule:evenodd;" d="M410.901,447.218c-33.006,2.642-56.755,31.907-51.288,64.872
		c4.614,27.818,30.862,56.342,64.176,51.579c27.589-3.945,55.638-31.703,51.177-64.642
		C471.261,471.66,442.759,444.667,410.901,447.218L410.901,447.218z"/>
	<path style="fill-rule:evenodd;clip-rule:evenodd;" d="M582.738,448.163c-18.592,1.167-36.183,11.544-45.356,26.562
		c-6.71,10.985-9.14,21.46-8.087,35.199c2.681,34.956,29.882,54.318,62.435,53.372c31.185-0.906,54.221-29.405,53.013-62.283
		C643.61,470.172,615.663,446.098,582.738,448.163L582.738,448.163z"/>
	<path style="fill-rule:evenodd;clip-rule:evenodd;fill:#FEFEFE;" d="M430.226,716.52c10.425,2.471,15.573,5.236,30.531,8.181
		c7.622,1.501,27.473,4.636,35.012,3.671l0.046-42.219c-5.208-0.858-20.107-0.861-31.961-2.675
		c-4.996-0.764-9.617-1.591-14.431-2.59c-4.401-0.913-9.966-2.769-13.965-3.282C434.316,682.918,430.265,711.693,430.226,716.52
		L430.226,716.52z"/>
	<path style="fill-rule:evenodd;clip-rule:evenodd;fill:#FEFEFE;" d="M506.583,685.964l-0.248,42.587
		c15.931-0.375,30.197-2.371,45.388-5.857c4.425-1.015,9.431-2.773,13.596-3.478l-5.169-40.409
		c-7.877,0.88-17.034,3.395-25.567,4.615c-4.44,0.635-9.002,1.127-13.531,1.545C517.218,685.32,509.795,685.27,506.583,685.964
		L506.583,685.964z"/>
	<path style="fill-rule:evenodd;clip-rule:evenodd;fill:#FEFEFE;" d="M443.744,625.782l-6.599,40.1
		c8.323,4.123,48.153,10.109,58.507,9.217l0.157-43.387c-9.573-0.573-18.034-0.865-27.222-2.006
		C464.342,629.179,445.35,625.236,443.744,625.782L443.744,625.782z"/>
	<path style="fill-rule:evenodd;clip-rule:evenodd;fill:#FEFEFE;" d="M562.642,623.879l7.258,41.307
		c8.778-1.553,47.382-17.167,52.793-21.829c-0.797-5.584-10.9-32.506-13.562-35.844
		C600.206,612.339,573.852,621.983,562.642,623.879L562.642,623.879z"/>
	<path style="fill-rule:evenodd;clip-rule:evenodd;fill:#FEFEFE;" d="M571.567,675.939l5.369,39.006
		c7.17-0.272,47.07-20.549,54.248-27.478c0.07-10.784-3.768-22.606-5.229-32.719c-3.975,1.472-8.622,4.127-12.777,6.038
		c-7.444,3.424-19.188,7.967-27.091,10.513C582.514,672.451,574.427,674.462,571.567,675.939L571.567,675.939z"/>
	<path style="fill-rule:evenodd;clip-rule:evenodd;fill:#FEFEFE;" d="M506.549,631.829l-0.218,43.447
		c14.82-0.436,25.618-1.594,39.91-4.237c3.95-0.73,8.286-2.001,12.13-2.505c-0.067-1.218-5.156-38.814-6.742-41.94
		c-7.192,0.94-14.343,2.552-21.737,3.421L506.549,631.829L506.549,631.829z"/>
	<path style="fill-rule:evenodd;clip-rule:evenodd;fill:#FEFEFE;" d="M368.098,683.457c3.038,3.353,18.255,12.304,23.747,15.423
		c7.798,4.428,17.38,9.421,26.452,12.883l0.715-2.105c0.128-0.608,0.209-1.552,0.29-2.188c1.349-10.588,3.824-23.749,4.824-33.423
		c-4.05-1.764-9.035-3.337-13.346-5.118c-4.559-1.884-8.581-3.788-13.116-5.932c-4.424-2.092-8.503-4.274-12.522-6.534
		l-11.992-7.077C370.976,659.55,368.593,672.784,368.098,683.457L368.098,683.457z"/>
	<path style="fill-rule:evenodd;clip-rule:evenodd;fill:#FEFEFE;" d="M376.001,638.024c2.459,0.963,8.458,5.195,11.541,7.017
		c4.083,2.411,7.796,4.24,12.141,6.41c5.396,2.694,20.632,9.952,26.132,10.805c0.959-2.048,2.901-16.432,3.517-19.839
		c1.179-6.515,2.772-13.413,3.897-19.663c-3.261-1.377-15.779-4.801-22.846-7.578l-21.146-9.355
		C384.611,613.537,377.658,627.269,376.001,638.024L376.001,638.024z"/>
	<path style="fill-rule:evenodd;clip-rule:evenodd;" d="M497.305,561.849c-9.591,1.629-21.166,9.582-16.803,21.296
		c7.841,21.054,50.083,13.129,43.016-8.937C520.76,565.594,509.036,559.856,497.305,561.849L497.305,561.849z"/>
	<path style="fill-rule:evenodd;clip-rule:evenodd;" d="M390.003,256.907c-3.103,1.114-2.926,1.84-6.591,5.201
		c-2.147,1.969-3.426,3.83-5.681,5.842c-4.702,4.196-16.981,21.002-20.064,26.061c-1.379,2.264-3.802,5.03-2.305,8.752
		c0.947,2.355,4.321,4.551,7.771,3.255c2.595-0.975,7.199-9.106,9.997-13.083c4.376-6.218,10.382-13.318,15.565-19.03
		c5.704-6.288,10.677-7.896,8.629-13.586C396.399,257.75,393.504,255.651,390.003,256.907L390.003,256.907z"/>
	<path style="fill-rule:evenodd;clip-rule:evenodd;" d="M618.713,264.699c-2.526,0.896-4.368,3.34-3.906,6.646
		c0.46,3.297,5.454,6.527,9.799,12.328c16.35,21.831,11.815,35.444,21.977,32.087c9.602-3.172-2.712-24.899-5.858-30.17
		c-2.87-4.809-5.738-8.752-8.937-12.623C628.322,268.773,623.692,262.932,618.713,264.699L618.713,264.699z"/>
	<path style="fill-rule:evenodd;clip-rule:evenodd;" d="M412.878,272.364c-4.413,2.39-12.248,15.114-15.623,20.629
		c-1.857,3.034-4.692,8.431-6.032,12.023c-2.085,5.584,2.801,10.633,8.178,8.188c3.192-1.452,4.844-7.804,6.8-11.258
		c2.267-4.003,4.492-7.663,6.9-11.146l7.766-10.283C423.506,275.269,418.106,269.533,412.878,272.364L412.878,272.364z"/>
	<path style="fill-rule:evenodd;clip-rule:evenodd;" d="M585.864,279.861c-8.633,3.119-1.194,12.302,0.978,18.004
		c2.303,6.044,2.739,17.748,10.97,15.232c7.552-2.309,2.482-14.303,0.44-19.616C596.31,288.427,592.645,277.412,585.864,279.861
		L585.864,279.861z"/>
	<path style="fill-rule:evenodd;clip-rule:evenodd;" d="M440.146,282.999c-4.068,1.34-7.906,8.402-10.054,12.255
		c-5.43,9.741,1.674,13.207,6.436,11.453c2.935-1.082,3.037-3.301,4.702-6.329c3.931-7.149,8.578-9.499,5.98-14.758
		C446.171,283.518,443.358,281.942,440.146,282.999L440.146,282.999z"/>
</g>
</svg>
